<?xml version="1.0" encoding="UTF-8" standalone="no"?>
<!-- Created with Inkscape (http://www.inkscape.org/) -->

<svg
   xmlns:dc="http://purl.org/dc/elements/1.1/"
   xmlns:cc="http://creativecommons.org/ns#"
   xmlns:rdf="http://www.w3.org/1999/02/22-rdf-syntax-ns#"
   xmlns:svg="http://www.w3.org/2000/svg"
   xmlns="http://www.w3.org/2000/svg"
   xmlns:sodipodi="http://sodipodi.sourceforge.net/DTD/sodipodi-0.dtd"
   xmlns:inkscape="http://www.inkscape.org/namespaces/inkscape"
   id="svg3355"
   version="1.1"
   inkscape:version="0.91 r13725"
   xml:space="preserve"
   width="270"
   height="270"
   viewBox="0 0 270 270"
   sodipodi:docname="lifelink_icon.svg"
   inkscape:export-filename="/home/david/code/lifelink/icons/lifelink_48.png"
   inkscape:export-xdpi="16"
   inkscape:export-ydpi="16"><metadata
     id="metadata3361"><rdf:RDF><cc:Work
         rdf:about=""><dc:format>image/svg+xml</dc:format><dc:type
           rdf:resource="http://purl.org/dc/dcmitype/StillImage" /><dc:title></dc:title></cc:Work></rdf:RDF></metadata><defs
     id="defs3359"><clipPath
       clipPathUnits="userSpaceOnUse"
       id="clipPath3369"><path
         d="M 0,300 500,300 500,0 0,0 0,300 Z"
         id="path3371"
         inkscape:connector-curvature="0" /></clipPath></defs><sodipodi:namedview
     pagecolor="#ffffff"
     bordercolor="#666666"
     borderopacity="1"
     objecttolerance="10"
     gridtolerance="10"
     guidetolerance="10"
     inkscape:pageopacity="1"
     inkscape:pageshadow="2"
     inkscape:window-width="1920"
     inkscape:window-height="1064"
     id="namedview3357"
     showgrid="false"
     inkscape:snap-nodes="false"
     inkscape:zoom="2.2048"
     inkscape:cx="312.5"
     inkscape:cy="187.5"
     inkscape:window-x="0"
     inkscape:window-y="16"
     inkscape:window-maximized="0"
     inkscape:current-layer="g3363"
     inkscape:showpageshadow="false" /><g
     id="g3363"
     inkscape:groupmode="layer"
     transform="matrix(1.25,0,0,-1.25,0,270)"><g
       id="g3365"
       transform="translate(-164.5502,-41.137822)"><g
         id="g3367"
         clip-path="url(#clipPath3369)"><g
           id="g3373"
           transform="translate(227.4502,90.9502)"><path
             d="M 0,0 C -0.267,0.066 -0.517,0.149 -0.75,0.25 -2.45,0.25 -4.167,0.166 -5.9,0 m -1.3,0 c -13.633,0.3 -25.2,4.316 -34.7,12.05 -10,8.066 -15,17.783 -15,29.15 l 0,116.75 C -41.3,158.017 -27.867,151 -16.6,136.9 -6.3,123.733 -0.817,108.05 -0.15,89.85 -0.184,88.716 -0.133,58.767 0,0 c 0.9,-16.9 9.05,-33.754348 24.45,-39.427068 8.9,-3.264639 16.172932,-5.604464 26.898621,-5.461466 15.2,0.381089 31.638534,0.15731 48.227068,-0.03853 l 10.688531,0.362844 C 109.29722,-27.731224 101.116,-14.05 89.35,-7.15 80.35,-1.783 68.1,0.633 52.6,0.1 L 1.1,0"
             style="fill:none;stroke:#000000;stroke-width:12;stroke-linecap:round;stroke-linejoin:miter;stroke-miterlimit:3;stroke-dasharray:none;stroke-opacity:1"
             id="path3375"
             inkscape:connector-curvature="0"
             sodipodi:nodetypes="cccccsccccccccccc" /></g></g></g></g></svg>