<?xml version="1.0" encoding="UTF-8" standalone="no"?>
<!-- Created with Inkscape (http://www.inkscape.org/) -->

<svg
   xmlns:dc="http://purl.org/dc/elements/1.1/"
   xmlns:cc="http://creativecommons.org/ns#"
   xmlns:rdf="http://www.w3.org/1999/02/22-rdf-syntax-ns#"
   xmlns:svg="http://www.w3.org/2000/svg"
   xmlns="http://www.w3.org/2000/svg"
   xmlns:sodipodi="http://sodipodi.sourceforge.net/DTD/sodipodi-0.dtd"
   xmlns:inkscape="http://www.inkscape.org/namespaces/inkscape"
   id="svg3336"
   version="1.1"
   inkscape:version="0.91 r13725"
   xml:space="preserve"
   width="284"
   height="284"
   viewBox="0 0 275 0"
   sodipodi:docname="lifelink_icon.svg"
   inkscape:export-filename="/home/david/code/lifelink/icons/lifelink_144.png"
   inkscape:export-xdpi="45.630001"
   inkscape:export-ydpi="45.630001"><metadata
     id="metadata3342"><rdf:RDF><cc:Work
         rdf:about=""><dc:format>image/svg+xml</dc:format><dc:type
           rdf:resource="http://purl.org/dc/dcmitype/StillImage" /><dc:title></dc:title></cc:Work></rdf:RDF></metadata><defs
     id="defs3340"><clipPath
       clipPathUnits="userSpaceOnUse"
       id="clipPath3350"><path
         d="M 0,300 500,300 500,0 0,0 0,300 Z"
         id="path3352"
         inkscape:connector-curvature="0" /></clipPath></defs><sodipodi:namedview
     pagecolor="#ffffff"
     bordercolor="#666666"
     borderopacity="1"
     objecttolerance="10"
     gridtolerance="10"
     guidetolerance="10"
     inkscape:pageopacity="1"
     inkscape:pageshadow="2"
     inkscape:window-width="1920"
     inkscape:window-height="1064"
     id="namedview3338"
     showgrid="true"
     fit-margin-top="12"
     fit-margin-left="12"
     fit-margin-right="12"
     fit-margin-bottom="12"
     inkscape:zoom="3"
     inkscape:cx="110.59686"
     inkscape:cy="140.44696"
     inkscape:window-x="0"
     inkscape:window-y="16"
     inkscape:window-maximized="0"
     inkscape:current-layer="g3344"><inkscape:grid
       type="xygrid"
       id="grid3406"
       snapvisiblegridlinesonly="false"
       empspacing="3"
       dotted="true" /></sodipodi:namedview><g
     id="g3344"
     inkscape:groupmode="layer"
     inkscape:label="free_logo_3"
     transform="matrix(1.25,0,0,-1.25,-194.25008,322.9652)"><path
       style="fill:#000000;fill-opacity:1;stroke:#ffffff;stroke-width:0.17113851;stroke-miterlimit:4;stroke-dasharray:none"
       d="m 287.97887,41.05456 c -5.63907,0.503988 -13.64397,2.58122 -19.58342,5.082238 -15.99789,6.736493 -27.17301,19.625836 -29.97179,34.569337 l -0.46664,2.491551 -5.65985,0.466527 c -14.66346,1.208675 -25.5469,5.510575 -35.8625,14.175359 -7.04192,5.914998 -11.79614,13.103218 -14.23161,21.517728 l -0.90076,3.11214 -0.10829,63.10857 -0.10829,63.10858 5.81348,0 c 11.50765,0 20.3488,-2.61458 29.82848,-8.8211 4.59537,-3.00868 12.84817,-10.99163 16.36104,-15.82605 8.52274,-11.72905 14.13528,-23.57431 15.91134,-38.51159 0.5086,-4.27745 0.0123,-13.25308 0,-48.22111 l -0.0147,-42.014967 30.60891,-0.165776 c 29.24947,-0.158405 30.81527,-0.20383 35.25579,-1.022867 12.85056,-2.370235 21.75806,-6.697675 28.93482,-14.057151 8.17626,-8.384386 11.69102,-17.812817 12.87984,-34.550537 l 0.24365,-3.430144 -17.49348,-0.270418 -29.6158,-0.639563 C 297.94944,40.89942 291.23263,40.763751 287.97887,41.05456 Z m 33.13439,12.053735 c 8.88972,0.204867 17.67149,0.376191 19.51508,0.38071 l 3.35194,0.0083 -0.27194,1.490757 c -0.51622,2.829772 -2.27541,7.859507 -3.66595,10.481335 -5.16008,9.729244 -15.18726,15.605708 -29.83924,17.487381 -4.25749,0.546765 -10.88293,0.619064 -41.6953,0.454979 l -18.66285,-0.09938 0.80164,-2.882124 c 3.48529,-12.530397 15.00238,-22.48824 30.47584,-26.349847 5.6936,-1.420913 9.26149,-1.743356 16.95834,-1.532614 3.77814,0.103449 14.14273,0.355705 23.03244,0.560579 z m -83.96631,85.898255 c -0.17385,47.27828 -0.0888,45.42537 -2.51835,54.87624 -2.94964,11.47409 -8.97919,22.0556 -17.17228,30.13633 -4.41413,4.3536 -8.63372,7.35075 -13.52112,9.60396 -3.20279,1.47659 -8.69834,3.13747 -10.38125,3.13747 -0.72973,0 -0.74844,-1.63976 -0.6425,-56.35049 l 0.10911,-56.3505 1.10087,-3.18026 c 1.6608,-4.79781 3.71101,-7.91251 7.99088,-12.13983 6.24184,-6.16517 13.338,-10.096834 21.82832,-12.094081 4.29892,-1.011274 12.42914,-1.875533 13.04329,-1.386544 0.17762,0.141426 0.25098,19.827885 0.16303,43.747705 z"
       id="path3358"
       inkscape:connector-curvature="0"
       sodipodi:nodetypes="ssscssscccssssscssssccsscccsssscsssccsssssscssscs" /></g></svg>